<?xml version="1.0" encoding="UTF-8"?>
<svg id="Layer_1" data-name="Layer 1" xmlns="http://www.w3.org/2000/svg" viewBox="0 0 158.811 152.405">
  <path d="M138.371,20.03c-4.714-6.513-13.066-10.874-20.207-14.263C110.124,1.951,101.464.125,92.577.007c-17.057-.225-34.698,4.755-49.822,12.475C13.32,27.505-7.911,60.191,2.832,93.645c5.113,15.923,14.096,32.31,27.501,42.646,13.682,10.549,31.077,15.653,48.222,16.082,17.356.434,36.742-3.566,51.148-13.661,14.144-9.911,22.644-26.181,26.633-42.681,4.576-18.927,2.894-38.976-5.784-56.486-7.377-14.885-22.795-33.843-41.445-30.325-6.316,1.191-3.641,10.831,2.658,9.643,7.305-1.378,13.995,4.467,18.693,9.317s8.475,10.393,11.458,16.413c6.484,13.083,8.407,28.372,6.013,42.737-2.383,14.301-8.274,29.216-19.044,39.285-10.831,10.127-27.113,14.528-41.59,15.556-14.824,1.053-30.072-1.52-43.17-8.742s-21.165-18.782-27.473-32.102c-6.519-13.764-8.824-27.835-3.844-42.482,4.475-13.162,13.838-24.245,25.257-31.99,13.096-8.883,28.978-14.533,44.688-16.337,8.382-.963,16.974-.734,25.068,1.821,4.286,1.353,8.234,3.463,12.081,5.755,3.215,1.915,7.59,3.884,9.833,6.984,3.738,5.164,12.417.179,8.635-5.047h0Z"/>
  <path d="M86.553,34.949c-5.855-7.154-15.173-14.995-24.935-9.683-7.877,4.286-11.443,14.992-11.752,23.393-.181,4.939.883,9.286-4.189,11.873-4.132,2.107-8.885,2.719-12.732,5.44-6.34,4.485-8.019,15.303.293,18.776,1.136.475,5.032,1.574,6.266.868l.673.003c-.595-2.038-1.137-2.15-1.628-.337-.369.396-.939,2.186-1.057,2.518-1.563,4.404-1.661,9.476-.348,13.958,2.578,8.8,9.579,14.243,18.759,11.619,4.611-1.318,9.028-4.721,13.918-4.791,5.468-.079,4.701,4.415,5.305,8.514,1.534,10.408,11.446,11.918,20.547,11.534,5.442-.23,8.518-3.883,11.252-8.209,1.41-2.232,2.616-4.585,4.022-6.82,1.705-2.71,3.737-4.331,5.958-6.531,3.572-3.539,4.768-7.701,4.057-12.646-.373-2.596-1.108-5.048-2.122-7.466-.984-2.348-4.156-5.761-4.532-8.084l-.504,3.853c-.879.677-.875.726.012.145.663-.411,1.341-.796,2.033-1.157,1.374-.749,2.793-1.415,4.179-2.142,2.224-1.167,4.356-2.392,6.341-3.939,4.054-3.16,7.593-7.972,6.031-13.4-3.342-11.608-17.09-9.839-25.42-14.745-.607-.315-1.166-.703-1.677-1.164l.706,2.226c.466.065,2.285-2.598,2.489-2.951,1.169-2.023,1.523-4.386,1.331-6.678-.406-4.843-3.457-9.295-7.65-11.674-4.654-2.641-9.661-1.36-13.221,2.392-4.694,4.948-8.551,10.988-12.713,16.391-3.924,5.095,4.759,10.08,8.635,5.047,1.981-2.572,3.962-5.145,5.943-7.717,1.129-1.466,3.727-6.512,5.639-7.131,2.011-.652,3.903,2.606,3.401,4.322-.221.757-1.771,1.728-2.297,2.392-1.026,1.297-1.574,2.418-1.771,4.069-1.126,9.465,13.187,11.739,19.609,13.602,2.009.583,4.653,1.235,6.165,2.812,2.247,2.344-.5,3.842-2.531,5.22-4.117,2.792-10.509,4.086-13.432,8.311-3.132,4.528,1.195,8.187,3.179,11.968,1.172,2.233,2.808,5.636,2.449,8.234-.409,2.966-3.512,4.414-5.396,6.576-3.271,3.754-5.096,8.303-7.967,12.305-2.157,3.008-3.626,2.635-7.052,2.378-1.306-.098-4.581.152-5.484-1.073-.595-.808-.44-2.59-.533-3.492-.445-4.344-1.008-8.5-4.383-11.636-3.34-3.104-8.187-3.948-12.571-3.469-5.301.578-9.519,3.792-14.604,4.979-3.227.753-4.58-.147-5.933-3.153-1.21-2.689-1.412-5.928-.615-8.757,1.275-4.532,4.827-8.145,1.183-12.689-1.277-1.592-3.059-2.644-5.044-3.159-.738-.191-1.74-.291-2.521-.351-.99-.009-1.98-.016-2.97-.019.127.439.247.341.359-.295.73-2.237,4.833-2.914,6.805-3.61,2.488-.879,5.103-1.79,7.371-3.169,4.685-2.849,7.392-7.15,7.903-12.624.607-6.501-.335-12.363,3.365-18.215,5.28-8.352,12.056-.899,16.335,4.329,4.078,4.983,11.117-2.128,7.071-7.071h0Z"/>
  <path d="M74.09,40.388c-.013-2.018-.304-3.28-1.435-4.963-2.198-3.27-6.414-3.144-8.635,0-6.813,9.647-12.976,19.693-18.488,30.138-3.007,5.697,5.188,10.5,8.635,5.047,6.374-10.084,12.749-20.169,19.123-30.253h-8.635c1.134,1.836-1.627,6.685-2.311,8.487-1.352,3.564-2.777,7.099-4.292,10.597-2.891,6.678-6.089,13.214-9.498,19.642l8.635,5.047c8.077-15.382,17.768-29.769,29.108-42.937l-7.853-6.059c-4.328,10.215-10.144,19.627-15.549,29.285-2.553,4.562-5.001,9.188-7.107,13.976-2.141,4.865-4.443,9.653-3.01,15.027.943,3.535,5.79,4.988,8.357,2.206,15.351-16.636,24.021-37.704,36.554-56.296l-9.317-2.524c.284,4.921-3.883,11.179-5.858,15.58-2.187,4.874-4.451,9.714-6.792,14.516-4.683,9.606-9.685,19.05-14.951,28.349-2.969,5.243,3.597,9.444,7.853,6.059,9.322-7.414,14.315-19.52,19.955-29.693,6.393-11.531,12.177-23.997,20.664-34.174l-8.357-4.865c-7.648,23.404-22.916,43.427-30.168,67.02-1.639,5.331,6.589,8.987,9.139,3.853,8.906-17.929,19.136-35.125,30.64-51.509l-9.317-2.524c-.619,9.215-6.29,17.958-10.252,26.1-4.203,8.639-8.406,17.279-12.61,25.918-2.788,5.731,5.59,10.782,8.635,5.047,8.707-16.401,17.49-32.947,29.474-47.244l-7.853-6.059c-9.173,18.023-18.345,36.045-27.518,54.068,2.878,1.682,5.756,3.365,8.635,5.047,4.07-8.315,8.141-16.633,12.498-24.803,2.102-3.941,4.268-7.848,6.531-11.699,1.707-2.904,3.942-8.651,7.322-10.023-1.622-2.786-3.243-5.571-4.865-8.357-3.02,2.575-6.039,5.149-9.059,7.724-4.08,3.478.381,9.297,4.865,8.357,5.286-1.108,10.424-2.604,15.478-4.505-1.284-3.046-2.569-6.092-3.853-9.139-5.301,3.209-10.821,5.157-16.938,6.119,1.284,3.046,2.569,6.092,3.853,9.139,4.959-3.705,10.408-6.068,16.615-6.6l-5-5,.094.888,1.464-3.536c-2.308,2.694-6.621,3.98-9.671,5.657-3.238,1.78-6.324,3.881-8.692,6.751-2.662,3.226-3.785,7.402-6.446,10.588-2.745,3.285-7.006,5.099-10.774,6.908-3.637,1.746-3.05,8.561,1.194,9.139,2.198.299,4.052.33,6.254-.11.991-.198,1.962-.499,2.948-.719.618.019.674-.156.166-.525-.451-.746-.597-.503-.437.727-1.06,1.829-1.357,3.863-2.788,5.601-1.706,2.072-3.799,3.33-6.237,4.383,2.28,2.28,4.561,4.561,6.841,6.841,1.886-4.084,4.167-7.933,7.17-11.303,1.374-1.542,2.843-3,4.411-4.346.854-.733,1.732-1.425,2.648-2.078.417-.305.844-.595,1.281-.871,1.448-.78.758-.921-2.069-.423l-2.298-2.988c-.334-1.306-.669.775-1.11,1.522-.579.98-1.179,1.947-1.798,2.902-1.628,2.512-3.378,4.927-5.294,7.226-3.471,4.165-7.349,7.922-11.516,11.385,2.618,2.02,5.235,4.039,7.853,6.059,5.038-10.938,11.978-20.484,20.878-28.6-2.02.261-4.039.521-6.059.782l.655.426-2.298-2.988c-.383-1.512-.389-.095-1.056.993-.577.942-1.162,1.877-1.773,2.798-1.6,2.411-3.329,4.712-5.217,6.905-3.502,4.067-7.409,7.809-11.679,11.063l7.345,5.647c2.254-8.465,7.032-15.841,10.284-23.916,2.309-5.733,6.008-15.861-.766-20.108-6.859-4.3-16.249,3.9-21.495,7.812-7.682,5.728-14.848,12.142-22.133,18.357,2.786,1.622,5.571,3.243,8.357,4.865,1.789-6.932,4.832-13.044,9.169-18.734,3.421-4.488-4.168-10.356-7.853-6.059-4.839,5.643-10.271,10.48-16.523,14.508,2.448,1.882,4.897,3.764,7.345,5.647.656-2.619,1.798-4.889,3.991-6.561-2.02-2.618-4.039-5.235-6.059-7.853-3.701,3.45-7.402,6.9-11.103,10.35,2.786,1.622,5.571,3.243,8.357,4.865,1.012-3.623,2.74-6.248,5.538-8.746l-7.853-6.059c-.819,1.145-1.904,1.992-3.221,2.494,2.11,1.607,4.219,3.214,6.329,4.821-.206-5.552,2.184-10.299,6.978-13.197l-6.841-6.841c-1.749,3.278-4.487,7.233-8.302,8.278l3.853.504c.565,2.932,1.069,3.631,1.51,2.095.274-.726.599-1.429.976-2.11.735-1.488,1.554-2.948,2.405-4.372,1.781-2.979,3.797-5.762,6.03-8.415,3.491-4.148-.897-10.919-6.059-7.853-4.427,2.629-8.853,5.258-13.28,7.887-4.103,2.437-2.565,9.584,2.524,9.317,3.202-.168,6.405-.335,9.607-.503,6.529-.342,6.324-9.341,0-10-4.424-.461-8.822-.676-13.27-.65l1.329,9.821c7.092-1.04,13.969-2.76,20.717-5.18,4.748-1.703,4.722-7.925,0-9.643-.736-.268-1.471-.535-2.207-.803l1.194,9.139c4.277-3.223,8.555-6.446,12.832-9.669,3.616-2.725,7.899-5.282,10.732-8.871,5.908-7.485,1.957-16.397-2.932-23.22-3.372-4.706-10.06-1.808-9.139,3.853.542,3.331,1.343,6.531,2.433,9.726l8.357-4.865c-2.386-2.22-4.014-4.593-5.333-7.576l-7.853,6.059c11.017,12.582,19.762,27.004,25.753,42.624,2.786-1.622,5.571-3.243,8.357-4.865-1.929-2.386-3.423-4.98-4.743-7.738-2.476-5.171-10.652-1.512-9.139,3.853,2.466,8.741,6.729,16.51,12.619,23.405,3.483,4.077,9.294-.379,8.357-4.865-1.065-5.095-2.13-10.19-3.195-15.285-2.786,1.622-5.571,3.243-8.357,4.865,1.887,2.26,3.525,4.634,5.051,7.148,3.343,5.508,11.71.617,8.635-5.047-3.745-6.897-6.293-14.224-8.145-21.839-.837-3.442-1.538-6.916-2.165-10.403-.173-.961-.087-3.604-.631-4.448.4-1.652-.341-1.504-2.224.443.109,1.063.121,2.126.036,3.191l9.821-1.329c-.861-4.076-.897-8.019-.077-12.112l-9.139,1.194c3.164,5.647,3.833,12.372,1.253,18.409-2.502,5.852,6.11,10.953,8.635,5.047,4.043-9.459,3.819-19.449-1.253-28.503-2.006-3.581-8.282-3.085-9.139,1.194-1.182,5.905-1.167,11.534.077,17.429,1.201,5.688,9.624,4.132,9.821-1.329.208-5.749-1.629-12.288-8.208-13.291-5.888-.898-9.62,4.226-9.605,9.658.019,6.847,2.241,14.373,4.036,20.935,1.977,7.227,4.694,14.215,8.27,20.802l8.635-5.047c-1.971-3.247-4.182-6.258-6.615-9.172-3.448-4.13-9.287.413-8.357,4.865,1.065,5.095,2.13,10.19,3.195,15.285,2.786-1.622,5.571-3.243,8.357-4.865-4.762-5.574-8.061-11.95-10.048-18.992l-9.139,3.853c1.713,3.579,3.818,6.684,6.307,9.762,3.089,3.82,10.109-.297,8.357-4.865-6.64-17.31-16.108-33.085-28.325-47.037-4.037-4.61-9.972,1.265-7.853,6.059,1.634,3.697,3.94,6.848,6.896,9.6,3.444,3.205,10.051.1,8.357-4.865-1.09-3.194-1.891-6.394-2.433-9.726l-9.139,3.853c1.723,2.405,3.888,5.142,4.434,8.12.68,3.704-2.248,5.439-4.872,7.445-5.506,4.209-11.071,8.342-16.607,12.512-3.499,2.636-3.071,7.587,1.194,9.139.736.268,1.471.535,2.207.803v-9.643c-6.747,2.42-13.624,4.139-20.717,5.18-5.657.83-4.177,9.854,1.329,9.821,4.448-.027,8.846.189,13.27.65v-10c-3.202.168-6.405.335-9.607.503l2.524,9.317c4.427-2.629,8.853-5.258,13.28-7.887l-6.059-7.853c-3.493,4.151-6.673,8.541-9.233,13.334-1.998,3.739-4.746,8.473-2.355,12.673,5.61,9.855,18.015-4.609,20.822-9.87,2.286-4.285-2.411-9.519-6.841-6.841-7.693,4.65-12.266,12.807-11.931,21.832.11,2.965,3.15,6.034,6.329,4.821,3.944-1.504,6.748-3.663,9.197-7.089,3.454-4.831-3.829-9.652-7.853-6.059-4.002,3.574-6.669,8-8.11,13.159-1.379,4.935,4.775,8.204,8.357,4.865,3.701-3.45,7.402-6.9,11.103-10.35,4.057-3.782-1.479-11.345-6.059-7.853-4.33,3.302-7.247,7.192-8.586,12.537-1.015,4.05,3.554,8.089,7.345,5.647,6.95-4.478,13.161-9.793,18.546-16.072l-7.853-6.059c-4.823,6.327-8.19,13.422-10.177,21.122-1.309,5.073,4.663,8.016,8.357,4.865,5.205-4.44,10.36-8.95,15.658-13.28,2.807-2.294,5.679-4.504,8.688-6.528,1.197-.805,2.415-1.579,3.652-2.32.739-.451,1.489-.884,2.249-1.3,1.755-.386,2.036-.787.842-1.202-.871-.771-1.186-.384-.947,1.162l-.375,1.571c-.4,1.558-.919,3.1-1.49,4.602-1.1,2.894-2.513,5.662-3.886,8.434-2.728,5.508-5.407,11.026-6.995,16.987-1.018,3.823,3.697,8.426,7.345,5.647,6.894-5.253,12.952-11.179,18.108-18.163,3.596-4.87,10.615-13.519,3.26-18.303-1.916-1.246-4.468-.669-6.059.782-9.465,8.63-17.083,18.988-22.442,30.624-2.398,5.206,3.389,9.769,7.853,6.059,6.047-5.026,11.363-10.736,15.967-17.111,3.098-4.29,9.979-12.585,5.038-17.86-4.857-5.185-11.864,1.333-15.577,4.66-5.327,4.773-9.567,10.687-12.558,17.167-2.189,4.741,2.187,8.851,6.841,6.841,7.328-3.165,13.897-10.828,14.048-19.134.069-3.784-1.67-7.469-5.264-9.038-4.084-1.783-7.207,1.065-11.079.537l1.194,9.139c4.379-2.102,8.848-4.365,12.258-7.913,3.461-3.601,4.648-8.56,7.895-12.217,4.468-5.032,19.706-7.444,18.824-15.761-.266-2.505-2.081-5.25-5-5-7.952.682-15.237,3.165-21.662,7.966-4.609,3.444-1.876,10.04,3.853,9.139,6.909-1.087,13.346-3.507,19.326-7.127,4.655-2.818,1.635-11.203-3.853-9.139-5.055,1.901-10.193,3.397-15.478,4.505,1.622,2.786,3.243,5.571,4.865,8.357,3.02-2.575,6.039-5.149,9.059-7.724,3.671-3.13-.246-10.232-4.865-8.357-8.687,3.527-12.8,13.524-17.089,21.271-5.413,9.776-10.327,19.816-15.238,29.85-2.811,5.742,5.701,10.811,8.635,5.047,9.173-18.023,18.345-36.045,27.518-54.068,2.426-4.766-4.005-10.65-7.853-6.059-12.565,14.99-21.904,32.064-31.037,49.268,2.878,1.682,5.756,3.365,8.635,5.047,4.764-9.791,9.527-19.583,14.291-29.374,4.326-8.893,9.26-17.635,9.936-27.691.361-5.367-6.717-6.227-9.317-2.524-11.504,16.384-21.733,33.58-30.64,51.509,3.046,1.284,6.092,2.569,9.139,3.853,7.241-23.556,22.514-43.598,30.168-67.02,1.5-4.591-5.138-8.725-8.357-4.865-8.302,9.955-14.13,21.592-20.385,32.874-5.741,10.356-10.758,23.457-20.234,30.993l7.853,6.059c5.885-10.393,11.437-20.969,16.591-31.745,2.441-5.103,4.796-10.247,7.063-15.43,2.207-5.045,5.637-10.691,5.313-16.318-.291-5.042-6.512-6.685-9.317-2.524-12.028,17.844-20.27,38.319-34.991,54.272,2.786.735,5.571,1.471,8.357,2.206-1.04-3.901,3.281-10.242,4.986-13.613,2.101-4.155,4.4-8.205,6.715-12.243,4.635-8.087,9.315-16.129,12.958-24.727,1.996-4.712-3.778-10.791-7.853-6.059-11.894,13.811-22.197,28.821-30.672,44.96-2.988,5.69,5.614,10.745,8.635,5.047,4.466-8.423,8.503-17.044,12.125-25.862,2.724-6.631,8.286-15.979,3.975-22.959-2.012-3.257-6.611-3.202-8.635,0-6.374,10.084-12.749,20.169-19.123,30.253l8.635,5.047c5.513-10.445,11.675-20.491,18.488-30.138h-8.635l.07-.084c.042,6.432,10.042,6.447,10,0h0Z"/>
</svg>